<svg width="1200" height="760" viewBox="0 0 1200 760" fill="none" xmlns="http://www.w3.org/2000/svg">
  <rect width="1200" height="760" rx="40" fill="#020617"/>
  <rect x="1" y="1" width="1198" height="758" rx="39" stroke="#22D3EE" stroke-opacity="0.22" stroke-width="2"/>
  <rect x="56" y="56" width="1088" height="648" rx="28" fill="#0F172A"/>
  <rect x="56" y="56" width="1088" height="72" rx="28" fill="#111827"/>
  <circle cx="96" cy="92" r="10" fill="#F87171"/>
  <circle cx="128" cy="92" r="10" fill="#FBBF24"/>
  <circle cx="160" cy="92" r="10" fill="#34D399"/>
  <text x="96" y="176" fill="#22D3EE" font-family="Arial, Helvetica, sans-serif" font-size="24" font-weight="700" letter-spacing="4">Z-TECH</text>
  <text x="96" y="236" fill="#F8FAFC" font-family="Arial, Helvetica, sans-serif" font-size="54" font-weight="700">Web Developer Portfolio</text>
  <text x="96" y="280" fill="#94A3B8" font-family="Arial, Helvetica, sans-serif" font-size="23">Project hub, case studies and bilingual routing</text>
  <rect x="96" y="340" width="260" height="170" rx="24" fill="#020617"/>
  <rect x="124" y="372" width="110" height="16" rx="8" fill="#22D3EE"/>
  <rect x="124" y="420" width="180" height="12" rx="6" fill="#334155"/>
  <rect x="124" y="452" width="140" height="12" rx="6" fill="#334155"/>
  <rect x="392" y="340" width="260" height="170" rx="24" fill="#020617"/>
  <rect x="420" y="372" width="100" height="16" rx="8" fill="#22D3EE"/>
  <rect x="420" y="420" width="180" height="12" rx="6" fill="#334155"/>
  <rect x="420" y="452" width="150" height="12" rx="6" fill="#334155"/>
  <rect x="688" y="340" width="260" height="170" rx="24" fill="#020617"/>
  <rect x="716" y="372" width="130" height="16" rx="8" fill="#22D3EE"/>
  <rect x="716" y="420" width="176" height="12" rx="6" fill="#334155"/>
  <rect x="716" y="452" width="134" height="12" rx="6" fill="#334155"/>
  <rect x="984" y="340" width="80" height="170" rx="24" fill="#22D3EE" fill-opacity="0.12"/>
  <text x="96" y="650" fill="#64748B" font-family="Arial, Helvetica, sans-serif" font-size="20">Next.js • TypeScript • Tailwind CSS • Static export • Netlify</text>
</svg>